# xmcd
#
# Track frame offsets:
#       150
#       14885
#       28458
#       48265
#       66215
#       84157
#       99125
#       113007
#       129229
#       141967
#       159860
#       177094
#
# Disc length: 2538 seconds
#
# Revision: 0
# Processed by: cddbd v1.5.1PL0 Copyright (c) Steve Scherf et al.
# Submitted via: WhereIsIt 3.62
#
DISCID=9309e80c
DTITLE=Lonestar - Coming Home
DYEAR=2005
DGENRE=Country
TTITLE0=You're Like Comin Home
TTITLE1=Doghouse
TTITLE2=I'm A Man
TTITLE3=I'll Die Tryin
TTITLE4=Wild
TTITLE5=Noise
TTITLE6=Little Town
TTITLE7=I Never Needed You
TTITLE8=What's Wrong With That
TTITLE9=Two Bottles Of Beer
TTITLE10=I Just Want To Love You
TTITLE11=When I Go Home Again
EXTD=
EXTT0=
EXTT1=
EXTT2=
EXTT3=
EXTT4=
EXTT5=
EXTT6=
EXTT7=
EXTT8=
EXTT9=
EXTT10=
EXTT11=
PLAYORDER=
